<svg width="477" height="24" viewBox="0 0 477 24" fill="none" xmlns="http://www.w3.org/2000/svg">
<line x1="1" y1="12.9998" x2="476" y2="12.9998" stroke="#00A700" stroke-width="2" stroke-linecap="round"/>
<path d="M70.1655 4.75127C73.5843 7.3011 72.4998 8.26436 74.8664 12.4724C72.9208 11.0214 69.5441 12.7182 66.1253 10.1684C62.7064 7.61856 60.8938 2.05147 61.955 2.84294C64.7432 3.53315 66.7466 2.20143 70.1655 4.75127Z" fill="#00A700"/>
<path d="M36.8133 15.2624C39.3965 13.2396 39.8925 14.2392 43.4941 13.3324C42.0241 14.4835 42.6017 17.3327 40.0185 19.3555C37.4352 21.3784 32.9367 21.5996 33.7385 20.9717C34.814 19.0414 34.23 17.2853 36.8133 15.2624Z" fill="#00A700"/>
<path d="M135.165 4.75127C138.584 7.3011 137.5 8.26436 139.866 12.4724C137.921 11.0214 134.544 12.7182 131.125 10.1684C127.706 7.61856 125.894 2.05147 126.955 2.84294C129.743 3.53315 131.747 2.20143 135.165 4.75127Z" fill="#00A700"/>
<path d="M101.813 15.2624C104.397 13.2396 104.893 14.2392 108.494 13.3324C107.024 14.4835 107.602 17.3327 105.018 19.3555C102.435 21.3784 97.9367 21.5996 98.7385 20.9717C99.814 19.0414 99.23 17.2853 101.813 15.2624Z" fill="#00A700"/>
<path d="M200.165 4.75127C203.584 7.3011 202.5 8.26436 204.866 12.4724C202.921 11.0214 199.544 12.7182 196.125 10.1684C192.706 7.61856 190.894 2.05147 191.955 2.84294C194.743 3.53315 196.747 2.20143 200.165 4.75127Z" fill="#00A700"/>
<path d="M166.813 15.2624C169.397 13.2396 169.893 14.2392 173.494 13.3324C172.024 14.4835 172.602 17.3327 170.018 19.3555C167.435 21.3784 162.937 21.5996 163.739 20.9717C164.814 19.0414 164.23 17.2853 166.813 15.2624Z" fill="#00A700"/>
<path d="M265.165 4.75127C268.584 7.3011 267.5 8.26436 269.866 12.4724C267.921 11.0214 264.544 12.7182 261.125 10.1684C257.706 7.61856 255.894 2.05147 256.955 2.84294C259.743 3.53315 261.747 2.20143 265.165 4.75127Z" fill="#00A700"/>
<path d="M231.813 15.2624C234.397 13.2396 234.893 14.2392 238.494 13.3324C237.024 14.4835 237.602 17.3327 235.018 19.3555C232.435 21.3784 227.937 21.5996 228.739 20.9717C229.814 19.0414 229.23 17.2853 231.813 15.2624Z" fill="#00A700"/>
<path d="M330.165 4.75127C333.584 7.3011 332.5 8.26436 334.866 12.4724C332.921 11.0214 329.544 12.7182 326.125 10.1684C322.706 7.61856 320.894 2.05147 321.955 2.84294C324.743 3.53315 326.747 2.20143 330.165 4.75127Z" fill="#00A700"/>
<path d="M296.813 15.2624C299.397 13.2396 299.893 14.2392 303.494 13.3324C302.024 14.4835 302.602 17.3327 300.018 19.3555C297.435 21.3784 292.937 21.5996 293.739 20.9717C294.814 19.0414 294.23 17.2853 296.813 15.2624Z" fill="#00A700"/>
<path d="M395.165 4.75127C398.584 7.3011 397.5 8.26436 399.866 12.4724C397.921 11.0214 394.544 12.7182 391.125 10.1684C387.706 7.61856 385.894 2.05147 386.955 2.84294C389.743 3.53315 391.747 2.20143 395.165 4.75127Z" fill="#00A700"/>
<path d="M361.813 15.2624C364.397 13.2396 364.893 14.2392 368.494 13.3324C367.024 14.4835 367.602 17.3327 365.018 19.3555C362.435 21.3784 357.937 21.5996 358.739 20.9717C359.814 19.0414 359.23 17.2853 361.813 15.2624Z" fill="#00A700"/>
<path d="M460.165 4.75127C463.584 7.3011 462.5 8.26436 464.866 12.4724C462.921 11.0214 459.544 12.7182 456.125 10.1684C452.706 7.61856 450.894 2.05147 451.955 2.84294C454.743 3.53315 456.747 2.20143 460.165 4.75127Z" fill="#00A700"/>
<path d="M426.813 15.2624C429.397 13.2396 429.893 14.2392 433.494 13.3324C432.024 14.4835 432.602 17.3327 430.018 19.3555C427.435 21.3784 422.937 21.5996 423.739 20.9717C424.814 19.0414 424.23 17.2853 426.813 15.2624Z" fill="#00A700"/>
</svg>
