<svg width="24" height="24" viewBox="0 0 24 24" fill="none" xmlns="http://www.w3.org/2000/svg">
<path d="M22.7757 12.48C22.7757 14.9052 21.9082 17.2597 20.3142 19.1419C18.7196 21.0248 16.4956 22.3191 14.0178 22.7967C11.5398 23.2743 8.96855 22.904 6.74389 21.7517C4.51977 20.5997 2.78379 18.7399 1.82443 16.4954C0.865367 14.2517 0.73918 11.7572 1.46622 9.43462C2.19345 7.11146 3.73169 5.09744 5.82683 3.74083C7.92257 2.38383 10.4431 1.77087 12.9581 2.01091C15.4729 2.25094 17.8189 3.32821 19.5979 5.05222" stroke="#868E96" stroke-width="2"/>
<path d="M19.7117 1.51345L22.6303 8.19086L15.2035 7.30154L19.7117 1.51345Z" fill="#868E96"/>
<line x1="10.4023" y1="5.28003" x2="10.4023" y2="12.96" stroke="#868E96" stroke-width="2"/>
<line y1="-1" x2="7.5872" y2="-1" transform="matrix(0.71813 0.695909 -0.71813 0.695909 9.40234 12.96)" stroke="#868E96" stroke-width="2"/>
</svg>
